<?xml version="1.0" encoding="UTF-8" standalone="no"?>
<!-- Created with Inkscape (http://www.inkscape.org/) -->

<svg
   version="1.1"
   id="svg1"
   width="224.73849"
   height="224.84827"
   viewBox="0 0 224.73849 224.84827"
   sodipodi:docname="images.png"
   xmlns:inkscape="http://www.inkscape.org/namespaces/inkscape"
   xmlns:sodipodi="http://sodipodi.sourceforge.net/DTD/sodipodi-0.dtd"
   xmlns="http://www.w3.org/2000/svg"
   xmlns:svg="http://www.w3.org/2000/svg">
  <defs
     id="defs1" />
  <sodipodi:namedview
     id="namedview1"
     pagecolor="#ffffff"
     bordercolor="#cccccc"
     borderopacity="1"
     inkscape:showpageshadow="0"
     inkscape:pageopacity="1"
     inkscape:pagecheckerboard="0"
     inkscape:deskcolor="#d1d1d1">
    <inkscape:page
       x="0"
       y="0"
       width="224.73849"
       height="224.84827"
       id="page2"
       margin="0"
       bleed="0" />
  </sodipodi:namedview>
  <g
     inkscape:groupmode="layer"
     inkscape:label="Image"
     id="g1"
     transform="translate(-0.09181938,-0.09508548)">
    <g
       id="g4">
      <path
         style="display:inline;fill:#e9ba00"
         d="M 92.912874,223.43002 C 82.728031,221.83744 67.5667,216.60751 58.603215,211.59485 16.065411,187.80635 -5.8274542,142.78538 1.4808884,94.127243 8.5247803,47.229785 47.201276,8.5290624 94.059001,1.4911383 143.38488,-5.9174964 188.75864,16.532634 212.31076,60 c 16.95645,31.29454 16.66019,75.32542 -0.71591,106.39678 -23.92262,42.77764 -69.56851,64.713 -118.681976,57.03324 z"
         id="path6" />
      <path
         style="display:inline;fill:#907300"
         d="M 92.912874,223.43002 C 82.728031,221.83744 67.5667,216.60751 58.603215,211.59485 16.065411,187.80635 -5.8274542,142.78538 1.4808884,94.127243 8.5247803,47.229785 47.201276,8.5290624 94.059001,1.4911383 143.38488,-5.9174964 188.75864,16.532634 212.31076,60 c 16.95645,31.29454 16.66019,75.32542 -0.71591,106.39678 -23.92262,42.77764 -69.56851,64.713 -118.681976,57.03324 z m 45.694066,-11.90379 c 38.75239,-9.71958 69.13119,-42.37259 75.99109,-81.67993 2.11589,-12.1241 1.44246,-32.013411 -1.45668,-43.021733 C 210.14541,75.448632 205.44146,64.888375 199.03707,55.160727 166.52863,5.7835837 98.66569,-5.7962434 51.238689,29.941075 41.359632,37.385168 34.304813,44.976689 27.289777,55.711921 17.966211,69.979939 12.836607,84.527609 11.082066,101.67734 5.4526291,156.70221 44.860427,206.48222 100,213.99864 c 10.41154,1.41927 27.43808,0.32887 38.60694,-2.47241 z M 103.5,208.00268 C 77.81388,205.22578 54.094974,192.21247 37.8792,172 26.985895,158.42183 18.048139,136.60833 17.668277,122.67321 L 17.5,116.5 H 45 72.5 l 0.533852,33.5 c 0.293618,18.425 0.631118,33.6125 0.75,33.75 C 73.902733,183.8875 78.275,184 83.5,184 H 93 v -29.03138 c 0,-24.79387 0.21744,-29.11483 1.489688,-29.60304 2.049661,-0.78653 37.679742,19.92144 41.199282,23.94476 1.54607,1.76736 6.81349,8.49555 11.70538,14.95152 4.89189,6.45598 9.2248,11.73814 9.62868,11.73814 0.40388,0 1.24919,-1.24299 1.87847,-2.7622 0.62928,-1.51921 2.17903,-4.06007 3.44388,-5.64635 l 2.29975,-2.88416 9.17743,5.353 c 5.84818,3.41112 9.17744,5.96717 9.17744,7.04601 0,2.05958 -8.75328,10.20793 -16.4633,15.32556 -17.80446,11.81792 -42.14237,17.82968 -63.0367,15.57082 z m 74.25,-41.8283 c -10.72406,-6.16259 -11.29385,-7.12977 -7.68635,-13.04706 1.13089,-1.85498 1.84229,-3.93005 1.58088,-4.61126 -0.26558,-0.69212 -3.27014,-1.54185 -6.80991,-1.92595 -3.48404,-0.37806 -11.00684,-1.36782 -16.71734,-2.19948 l -10.38271,-1.51211 -20.61729,-12.03569 C 105.77778,124.2232 95.7125,118.10579 94.75,117.24858 92.607497,115.34046 92.364251,107.77861 94.380516,105.76234 95.1398,105.00306 116.58611,92.50975 142.03898,77.999435 l 46.27795,-26.38239 2.59153,3.11348 c 7.90372,9.495547 15.02479,26.167283 17.69325,41.423172 2.93554,16.782733 0.63422,36.733653 -6.10489,52.925363 -3.28984,7.90432 -11.05317,20.61764 -13.32051,21.81381 -1.23353,0.65076 -4.25166,-0.59557 -11.42631,-4.71849 z M 17.34326,108.45214 c -1.012372,-2.6382 0.560637,-13.896773 3.22729,-23.098837 10.589338,-36.54159 41.097915,-63.236632 78.850473,-68.99426 16.882537,-2.574749 34.949957,-0.264684 51.469257,6.580759 12.80512,5.306316 33.86261,20.941493 32.60436,24.208711 C 182.84823,48.826997 97.465431,97.5 95.167422,97.5 93.661559,97.5 93.451554,94.738585 93,69 L 92.5,40.5 83.25,40.212474 c -5.0875,-0.158139 -9.34767,-0.158139 -9.467044,0 C 73.663582,40.370613 73.326082,56.025 73.032956,75 L 72.5,109.5 45.2248,109.76612 c -24.094854,0.23509 -27.3459,0.0819 -27.88154,-1.31398 z"
         id="path5" />
      <path
         style="display:inline;fill:#0b0a02"
         d="M 100,224.03726 C 83.007834,221.44491 63.134512,213.87872 49.877393,204.95452 41.088933,199.03846 27.019069,185.11279 20.928155,176.30197 13.695411,165.83944 7.6248817,152.36316 3.8998722,138.5 0.99233307,127.67918 0.67548992,125.12429 0.67548992,112.5 c 0,-12.624293 0.31684315,-15.179177 3.22438228,-26 C 9.8361524,64.407284 19.390809,47.791151 34.749369,32.850835 49.814681,18.19578 65.08164,9.6549539 86.5,3.8998722 c 10.820823,-2.90753913 13.375707,-3.22438228 26,-3.22438228 12.62429,0 15.17918,0.31684315 26,3.22438228 21.41836,5.7550817 36.68532,14.2959078 51.75063,28.9509628 15.35856,14.940316 24.91322,31.556449 30.8495,53.649165 2.90754,10.820823 3.22438,13.375707 3.22438,26 0,12.62429 -0.31684,15.17918 -3.22438,26 -3.72501,13.86316 -9.79554,27.33944 -17.02829,37.80197 -6.09091,8.81082 -20.16077,22.73649 -28.94923,28.65255 C 153.98037,219.18668 121.79527,227.36238 100,224.03726 Z m 34.62697,-9.94714 c 31.63214,-6.5282 59.47005,-28.66981 73.37743,-58.36266 C 226.63551,115.94923 217.94513,68.520911 186.31461,37.354089 145.61845,-2.7454697 79.695222,-2.2886706 39.45588,38.371711 17.89422,60.158979 7.8397442,86.503428 9.2902818,117.41074 c 0.6561605,13.98114 2.9893242,23.99158 8.5010222,36.47367 9.423622,21.34124 25.783202,38.97367 46.508221,50.12676 8.112926,4.36594 22.731283,9.51825 30.813837,10.86049 9.906108,1.64506 29.647558,1.2546 39.513608,-0.78154 z M 99,205.94308 C 91.933087,204.89841 77.914936,200.4748 71.5,197.26509 51.999479,187.50804 35.562889,170.54532 26.727641,151.0596 23.231752,143.34958 19,127.36597 19,121.87178 V 118 H 45.5 72 v 33.39301 c 0,29.52757 0.183101,33.46328 1.581787,34 2.948307,1.13137 18.963567,0.66164 20.218213,-0.59301 0.876796,-0.8768 1.2,-8.82222 1.2,-29.5 0,-19.23803 0.338855,-28.3 1.058223,-28.3 1.527612,0 35.063267,19.80316 37.441777,22.10977 1.1,1.06675 6.5265,7.89095 12.05889,15.16489 5.5324,7.27393 10.70562,13.22534 11.49605,13.22534 0.79043,0 2.58001,-2.11609 3.97685,-4.70241 1.39683,-2.58633 2.83785,-5.00057 3.20226,-5.36498 0.70221,-0.70221 11.87761,5.21772 15.71371,8.32401 l 2.27322,1.84073 -5.68514,5.1959 C 156.60448,201.00939 126.47624,210.00476 99,205.94308 Z m 79.79373,-40.78107 c -10.67085,-6.45547 -10.42088,-6.03477 -7.1152,-11.97541 1.87461,-3.36887 2.48588,-5.40116 1.82147,-6.05588 -0.55,-0.54198 -8.425,-1.96342 -17.5,-3.15876 L 139.5,141.79861 121,131.24327 C 93.175441,115.36773 95,116.7531 95,111.50164 c 0,-4.07234 0.336097,-4.69009 3.75,-6.89255 C 105.3975,100.3205 187.10074,54 188.01774,54 c 1.24615,0 6.12,7.316613 9.99203,15 7.86114,15.599102 10.52348,28.677497 9.71575,47.72736 -0.58948,13.90286 -2.56818,22.5548 -7.79844,34.09901 -3.7629,8.30546 -10.7829,19.20308 -12.29454,19.08564 -0.6229,-0.0484 -4.60036,-2.18589 -8.83881,-4.75 z M 18.685172,107.25 C 17.876686,105.84918 19.961257,92.530181 22.089288,85.5 32.016632,52.703943 55.866991,29.51517 89.684346,19.779962 96.332531,17.866108 99.890012,17.530022 113.5,17.530022 c 13.65434,0 17.15744,0.333042 23.89503,2.271718 9.39521,2.703377 20.02414,7.485863 28.05608,12.623832 6.81111,4.357016 16.74063,13.455171 15.9973,14.657902 -0.53469,0.86515 -81.782437,47.340002 -84.753035,48.479927 C 95.126354,96.165491 95,94.121821 95,68.142173 95,35.548506 95.935307,38 83.5,38 70.943655,38 72,34.68995 72,74.035184 V 108 H 45.559017 c -14.542541,0 -26.635771,-0.3375 -26.873845,-0.75 z"
         id="path4" />
    </g>
  </g>
</svg>
